<?xml version="1.0" standalone="no"?>
<!DOCTYPE svg PUBLIC "-//W3C//DTD SVG 20010904//EN"
 "http://www.w3.org/TR/2001/REC-SVG-20010904/DTD/svg10.dtd">
<svg version="1.0" xmlns="http://www.w3.org/2000/svg"
 width="478.000000pt" height="79.000000pt" viewBox="0 0 478.000000 79.000000"
 preserveAspectRatio="xMidYMid meet">

<g transform="translate(0.000000,79.000000) scale(0.100000,-0.100000)"
fill="#000000" stroke="none">
<path d="M1280 470 l0 -300 35 0 35 0 0 149 0 150 35 27 c49 37 118 40 146 5
17 -21 19 -40 19 -177 l0 -154 41 0 41 0 -4 158 c-5 174 -15 209 -68 237 -46
24 -121 19 -164 -10 -20 -14 -39 -25 -41 -25 -3 0 -5 54 -5 120 l0 120 -35 0
-35 0 0 -300z"/>
<path d="M3776 757 c-22 -16 -18 -65 5 -80 47 -29 101 32 64 73 -21 23 -44 25
-69 7z"/>
<path d="M30 715 l0 -35 95 0 95 0 0 -255 0 -255 40 0 40 0 0 255 0 254 93 3
92 3 3 33 3 32 -230 0 -231 0 0 -35z"/>
<path d="M1750 460 l0 -290 165 0 165 0 0 35 0 35 -125 0 -125 0 0 255 0 255
-40 0 -40 0 0 -290z"/>
<path d="M535 557 c-125 -71 -122 -295 6 -366 48 -27 147 -28 205 -2 51 23 61
38 41 58 -14 15 -20 14 -66 -5 -27 -12 -59 -22 -71 -22 -64 0 -130 62 -130
123 l0 27 134 0 c153 0 160 4 150 68 -8 53 -36 98 -76 122 -47 29 -140 27
-193 -3z m169 -49 c15 -13 29 -38 32 -55 l7 -33 -113 0 -112 0 6 28 c4 15 20
39 37 55 39 36 105 38 143 5z"/>
<path d="M972 563 c-135 -66 -135 -309 -1 -378 58 -30 183 -13 218 29 12 15
12 19 -1 32 -14 14 -19 13 -54 -5 -46 -25 -84 -27 -124 -6 -41 21 -61 65 -61
135 -1 74 22 123 66 144 42 20 64 20 115 0 32 -13 43 -14 55 -4 22 18 19 24
-24 48 -48 27 -140 29 -189 5z"/>
<path d="M2212 563 c-131 -64 -135 -297 -7 -370 67 -38 186 -29 248 19 16 12
16 16 3 33 -14 19 -14 19 -57 0 -24 -11 -65 -20 -91 -20 -38 0 -52 5 -77 29
-26 25 -51 78 -51 108 0 4 64 9 143 10 l142 3 3 45 c3 57 -29 116 -78 141 -43
24 -133 25 -178 2z m147 -48 c25 -12 51 -57 51 -86 0 -5 -49 -9 -110 -9 -105
0 -110 1 -110 21 0 12 15 36 34 55 38 38 86 45 135 19z"/>
<path d="M2622 559 c-50 -25 -61 -44 -39 -66 14 -15 18 -15 43 2 90 59 174 28
174 -64 0 -27 -3 -28 -57 -34 -137 -15 -193 -53 -193 -130 0 -39 5 -49 32 -72
29 -24 38 -27 93 -23 42 2 70 10 92 26 39 27 41 27 45 -1 2 -16 11 -23 31 -25
l27 -3 0 151 c0 171 -9 208 -62 240 -45 27 -129 27 -186 -1z m176 -251 c-3
-36 -9 -46 -38 -66 -47 -31 -119 -28 -136 6 -6 13 -9 33 -6 44 7 28 77 58 135
58 l48 0 -3 -42z"/>
<path d="M2980 375 l0 -205 35 0 35 0 0 134 0 135 34 35 c30 32 39 36 84 36
45 0 50 2 56 25 9 36 0 45 -45 45 -48 0 -76 -13 -106 -48 l-21 -25 -7 36 c-6
33 -11 37 -36 37 l-29 0 0 -205z"/>
<path d="M3310 375 l0 -205 35 0 35 0 0 149 0 149 30 25 c57 48 135 44 159 -9
6 -15 11 -83 11 -169 l0 -145 35 0 35 0 0 156 c0 173 -8 207 -59 237 -43 25
-116 22 -166 -8 -44 -25 -55 -24 -55 7 0 13 -8 18 -30 18 l-30 0 0 -205z"/>
<path d="M3770 375 l0 -205 35 0 35 0 0 205 0 205 -35 0 -35 0 0 -205z"/>
<path d="M3970 375 l0 -205 35 0 35 0 0 149 0 150 35 27 c49 37 118 40 146 5
17 -21 19 -40 19 -177 l0 -154 41 0 41 0 -4 158 c-5 174 -15 209 -68 237 -34
18 -112 20 -143 4 -12 -6 -32 -20 -43 -31 -21 -19 -21 -19 -27 12 -6 25 -11
30 -37 30 l-30 0 0 -205z"/>
<path d="M4474 561 c-45 -28 -64 -59 -64 -106 0 -41 31 -105 51 -105 6 0 -1
-14 -15 -31 -29 -34 -33 -70 -11 -89 14 -12 12 -17 -15 -41 -32 -30 -40 -72
-19 -111 17 -32 86 -58 159 -58 110 0 187 50 197 128 5 35 2 44 -21 65 -30 28
-65 37 -145 37 -70 0 -98 8 -106 28 -10 26 21 47 65 43 54 -4 101 13 136 50
25 26 29 38 28 84 0 51 2 55 28 64 52 18 34 39 -39 45 -195 18 -197 18 -229
-3z m154 -51 c33 -31 30 -92 -4 -119 -30 -24 -90 -27 -116 -7 -41 31 -41 103
-1 134 27 20 96 15 121 -8z m50 -334 c31 -19 7 -79 -39 -95 -116 -40 -244 34
-166 96 20 16 36 18 108 13 46 -3 90 -9 97 -14z"/>
</g>
</svg>
